# xmcd CD database file
#
# Track frame offsets:
#	150
#	20649
#	33280
#	43789
#	53136
#	69203
#	79466
#	91661
#	99156
#	108734
#	123769
#	134571
#
# Disc length: 2032 seconds
#
# Revision: 0
# Processed by: cddbd v1.4PL0 Copyright (c) Steve Scherf et al.
# Submitted via: CDex 1.40Beta5
#
DISCID=9807ee0c
DTITLE=Compilation - The Hits Of Western Swing
DYEAR=2000
DGENRE=Country
TTITLE0=Call Me The Breeze
TTITLE1=San Antonio Rose
TTITLE2=Cherokee Maiden
TTITLE3=Red Wing
TTITLE4=Maiden's Prayer
TTITLE5=Across The Alley From The Alamo
TTITLE6=Route 66
TTITLE7=Wildwood Flower
TTITLE8=My Window Faces The South
TTITLE9=Draggin' The Bow
TTITLE10=Okie From Muskogee
TTITLE11=Faded Love
EXTD=YEAR: 2000 ID3G:   2
EXTT0=
EXTT1=
EXTT2=
EXTT3=
EXTT4=
EXTT5=
EXTT6=
EXTT7=
EXTT8=
EXTT9=
EXTT10=
EXTT11=
PLAYORDER=
